:SAMPLES-PER-SECOND 30
:FULLY-SPECIFIED
:DEGREES
1281
root  69.1767 39.42 -33.1335 -5.14151 -6.27481 3.69153
RightUpLeg  -19.5064 -12.3134 -6.39443
RightLeg  43.4492 -3.38894 -3.73695
RightFoot  0.427924 -0.613513 5.97046
RightToes  0.00048216 0.542163 -0.142577
Spine  14.818 0.876129 -3.06283
Spine1  6.01736 0.989979 -2.50553
HEad  24.4403 4.0096 1.08056
LeftShoulder1  2.13325 -4.23696 -21.102
LeftArm  -22.3575 19.7855 -14.0549
LeftForeArm  9.41632 -7.33516 -0.028197
LeftHand  -0.25398 0.0180481 5.50724
RightShoulder  1.47698 2.81067 16.7298
RightArm  -22.4987 -11.479 11.9824
RightForeArm  -4.72378 4.06185 2.34745
RightHand  -3.29107 9.46898 -25.7327
LeftUpLeg  3.47882 6.71503 -4.71263
LeftLeg  13.8216 15.6324 -0.831712
LeftFoot  -13.5212 0.111398 1.58551
LeftToes  1.06244e-005 4.65855e-005 -8.18506e-006
1282
root  69.2025 39.471 -32.8673 -4.50871 -6.00414 3.0705
RightUpLeg  -20.4067 -14.0243 -4.6816
RightLeg  38.8752 -3.27426 -3.09448
RightFoot  -0.0487497 -0.559929 5.65646
RightToes  0.00048216 0.542163 -0.142577
Spine  15.6719 0.618023 -2.41044
Spine1  5.92787 0.806213 -2.4882
HEad  24.2657 3.85797 0.972144
LeftShoulder1  2.55857 -5.18088 -23.1354
LeftArm  -22.4872 19.2952 -16.3397
LeftForeArm  11.4275 -6.99928 -0.072437
LeftHand  -0.25398 0.0180481 5.50724
RightShoulder  1.81253 3.61494 18.9708
RightArm  -21.9804 -11.1024 13.2866
RightForeArm  -1.274 3.85197 2.30187
RightHand  -3.09973 9.15797 -24.798
LeftUpLeg  3.50542 6.46585 -4.18562
LeftLeg  13.3966 15.6183 -0.935493
LeftFoot  -13.6257 0.113027 1.57297
LeftToes  1.06244e-005 4.65855e-005 -8.18506e-006
1283
root  69.1895 39.4791 -32.5535 -3.73056 -5.71075 2.71631
RightUpLeg  -20.6157 -15.2287 -3.0911
RightLeg  31.9285 -3.72036 -2.72699
RightFoot  -0.267804 -0.568148 5.83584
RightToes  0.00048216 0.542163 -0.142577
Spine  16.4439 0.416421 -2.18242
Spine1  5.76596 0.614481 -2.39888
HEad  23.7474 3.91911 0.842419
LeftShoulder1  2.90861 -5.99015 -24.3732
LeftArm  -22.3759 18.4635 -19.2681
LeftForeArm  13.8564 -6.10685 -0.159146
LeftHand  -0.25398 0.0180481 5.50724
RightShoulder  2.191 4.51825 20.9726
RightArm  -21.5437 -10.6795 14.5726
RightForeArm  2.49516 3.75784 2.22346
RightHand  -2.8993 8.79985 -23.8257
LeftUpLeg  3.23837 6.0956 -3.93883
LeftLeg  13.3362 15.6383 -0.861019
LeftFoot  -13.9722 0.112503 1.24457
LeftToes  1.06244e-005 4.65855e-005 -8.18506e-006
1284
root  69.1646 39.4812 -32.196 -2.81679 -5.3177 2.53827
RightUpLeg  -20.2686 -16.6715 -1.5834
RightLeg  23.1691 -3.91905 -2.17137
RightFoot  -0.0854251 -0.594713 6.01283
RightToes  0.00048216 0.542163 -0.142577
Spine  17.0899 0.252379 -2.08236
Spine1  5.89314 0.382858 -1.97495
HEad  22.7611 3.89778 0.588842
LeftShoulder1  3.30574 -6.80423 -25.8699
LeftArm  -21.9415 17.1277 -21.7745
LeftForeArm  15.9583 -5.27684 -0.395131
LeftHand  -0.25398 0.0180481 5.50724
RightShoulder  2.44868 5.09289 22.2278
RightArm  -21.5542 -10.035 16.2044
RightForeArm  5.14643 4.03467 2.16931
RightHand  -2.77364 8.43699 -23.4077
LeftUpLeg  2.89895 5.68722 -3.89329
LeftLeg  13.166 15.5383 -0.817272
LeftFoot  -14.0984 0.115955 1.30343
LeftToes  1.06244e-005 4.65855e-005 -8.18506e-006
1285
root  69.1254 39.4791 -31.7915 -1.81004 -4.67976 2.5119
RightUpLeg  -19.3868 -16.2183 -1.24676
RightLeg  13.6221 -4.82559 -0.237834
RightFoot  1.34173 -0.602276 5.50597
RightToes  0.00048216 0.542163 -0.142577
Spine  17.6726 0.15584 -2.04839
Spine1  6.28266 0.103888 -1.11978
HEad  21.6522 3.62263 0.21764
LeftShoulder1  3.82327 -7.75237 -27.8399
LeftArm  -21.7952 15.5359 -23.6894
LeftForeArm  17.3236 -5.10468 -0.624459
LeftHand  -0.25398 0.0180481 5.50724
RightShoulder  2.46572 5.0516 22.5753
RightArm  -22.0459 -9.03102 18.3784
RightForeArm  5.945 4.40459 2.15382
RightHand  -2.73116 8.12913 -23.5614
LeftUpLeg  2.68756 5.41757 -3.93704
LeftLeg  12.671 15.185 -1.00668
LeftFoot  -14.1148 0.131433 1.92208
LeftToes  1.06244e-005 4.65855e-005 -8.18506e-006
